<svg width="51" height="51" viewBox="0 0 51 51" fill="none" xmlns="http://www.w3.org/2000/svg">
<g clip-path="url(#clip0_289_98)">
<path d="M18.0466 24.2779V28.1374C18.0466 28.8276 18.4312 29.4295 18.9971 29.741V29.9566C18.9971 30.0407 19.0216 30.123 19.0676 30.1934L20.8628 32.9391C20.9426 33.0613 21.0789 33.1349 21.2249 33.1349H22.2708V42.7322C22.2708 45.6106 23.5183 48.3426 25.6937 50.2277C25.8561 50.3689 26.0977 50.3686 26.2602 50.2277C28.4356 48.3426 29.6832 45.6107 29.6832 42.7322V33.1348H30.7291C30.8751 33.1348 31.0112 33.0612 31.0912 32.939L32.8864 30.1933C32.9325 30.1229 32.9569 30.0406 32.9569 29.9565V29.7409C33.5228 29.4295 33.9073 28.8276 33.9073 28.1373V24.2778C33.9073 23.5875 33.5228 22.9857 32.9569 22.6742L32.9569 14.4828C33.123 14.5243 33.296 14.5488 33.4747 14.5488C33.7136 14.5488 33.9073 14.3551 33.9073 14.1162V5.26493C33.9073 4.52463 33.5296 3.87106 32.9569 3.48625V2.28868C32.9569 2.04977 32.7632 1.85607 32.5243 1.85607H32.1437V0.765888C32.1437 0.526978 31.95 0.333279 31.7111 0.333279H30.0742C29.8353 0.333279 29.6416 0.526978 29.6416 0.765888V1.85607H29.2506C29.0117 1.85607 28.818 2.04977 28.818 2.28868V3.96829H28.4255V2.87682C28.4255 2.63791 28.2318 2.4442 27.9929 2.4442H27.1487V0.765999C27.1487 0.527088 26.955 0.333385 26.7161 0.333385H25.0793C24.8404 0.333385 24.6467 0.527088 24.6467 0.765999V2.4442H23.9609C23.722 2.4442 23.5283 2.63791 23.5283 2.87682V3.96829H23.1358V2.28889C23.1358 2.04999 22.9421 1.85629 22.7032 1.85629H22.3121V0.766102C22.3121 0.527195 22.1184 0.333492 21.8795 0.333492H20.2427C20.0038 0.333492 19.8101 0.527195 19.8101 0.766102V1.85629H19.4295C19.1906 1.85629 18.9969 2.04999 18.9969 2.28889V3.48647C18.4242 3.87128 18.0464 4.52485 18.0464 5.26515L18.0464 14.1164C18.0464 14.3553 18.2401 14.549 18.479 14.549C18.6579 14.549 18.8307 14.5245 18.9969 14.483V22.6744C18.4312 22.9857 18.0466 23.5875 18.0466 24.2779ZM18.9119 24.2779C18.9119 23.7463 19.3444 23.3138 19.8759 23.3138H20.4755L20.4755 29.1015H19.8759C19.3444 29.1015 18.9119 28.669 18.9119 28.1374V24.2779ZM21.459 32.2695L19.9533 29.9666H20.9083C21.1472 29.9666 21.3409 29.7729 21.3409 29.534V28.6466H22.2709V32.2695H21.459ZM30.6132 27.7814H29.6832V27.2209H30.6132V27.7814ZM28.8181 36.388H23.136V32.3427H28.8181V36.388ZM23.136 37.2532H28.8181V40.7704H23.136V37.2532ZM28.8181 31.4775H23.136V30.5889H28.8181V31.4775ZM22.2708 27.7814H21.3408V27.2209H22.2708V27.7814ZM25.9769 49.3176C24.1668 47.6105 23.1359 45.2318 23.1359 42.7321V41.6355H28.818V42.7322C28.8181 45.2318 27.7871 47.6106 25.9769 49.3176ZM30.495 32.2695H29.6832L29.6832 28.6466H30.6132V29.534C30.6132 29.7729 30.8069 29.9666 31.0458 29.9666H32.0008L30.495 32.2695ZM33.0421 28.1373C33.0421 28.6689 32.6096 29.1014 32.0781 29.1014H31.4785V23.3137H32.0781C32.6096 23.3137 33.0421 23.7462 33.0421 24.2778V28.1373ZM32.0917 22.4486C32.0871 22.4486 31.0458 22.4486 31.0458 22.4486C30.8069 22.4486 30.6132 22.6423 30.6132 22.8812V26.3558H29.6832L29.6832 6.10074H30.6132L30.6132 9.48917C30.6132 9.97163 30.9113 10.3859 31.333 10.5573V12.4071C31.333 13.0609 31.6282 13.6465 32.0917 14.0396L32.0917 22.4486ZM33.0421 13.6082C32.5506 13.4305 32.1982 12.9591 32.1982 12.4071V10.2089C32.1982 9.97002 32.0045 9.77631 31.7656 9.77631C31.6073 9.77631 31.4785 9.6475 31.4785 9.48917L31.4785 3.98874H31.7656C32.4695 3.98874 33.0421 4.56129 33.0421 5.26515V13.6082ZM31.7657 3.1234H31.046C30.807 3.1234 30.6133 3.3171 30.6133 3.55602V5.23541H29.6833V2.7214H32.0918V3.15088C31.9851 3.13454 31.8768 3.1234 31.7657 3.1234ZM30.5069 1.19861H31.2786V1.85617H30.5069V1.19861ZM25.512 1.19861H26.2836V2.4442H25.512V1.19861ZM24.3936 3.30943H27.5603V3.96829H24.3936V3.30943ZM28.8181 4.83351L28.8181 29.7238H23.136L23.136 4.83351H28.8181ZM20.6755 1.19861H21.4471V1.85617H20.6755V1.19861ZM19.8623 2.7214H22.2708V5.23541H21.3408V3.55602C21.3408 3.3171 21.1471 3.1234 20.9081 3.1234H20.1883C20.0772 3.1234 19.9689 3.13454 19.8623 3.15088V2.7214ZM18.9119 5.26505C18.9119 4.56119 19.4844 3.98862 20.1883 3.98862H20.4755V9.48906C20.4755 9.6474 20.3467 9.7762 20.1883 9.7762C19.9494 9.7762 19.7557 9.96991 19.7557 10.2088V12.407C19.7557 12.959 19.4034 13.4305 18.9119 13.6079V5.26505ZM19.8623 14.0396C20.3255 13.6465 20.6209 13.0609 20.6209 12.4071V10.5573C21.0426 10.386 21.3408 9.97174 21.3408 9.48917V6.10074H22.2708L22.2708 26.3558H21.3408V22.8812C21.3408 22.6423 21.1471 22.4486 20.9081 22.4486C20.9081 22.4486 19.867 22.4486 19.8623 22.4486L19.8623 14.0396Z" fill="#74A6BF"/>
<path d="M27.9835 39.0811H23.9706C23.7317 39.0811 23.538 39.2748 23.538 39.5137C23.538 39.7526 23.7317 39.9463 23.9706 39.9463H27.9835C28.2224 39.9463 28.4161 39.7526 28.4161 39.5137C28.4161 39.2748 28.2224 39.0811 27.9835 39.0811Z" fill="#BEBEBE"/>
</g>
<defs>
<clipPath id="clip0_289_98">
<rect width="50" height="50" fill="white" transform="matrix(-1 0 0 -1 50.9771 50.3335)"/>
</clipPath>
</defs>
</svg>
