<svg width="51" height="51" viewBox="0 0 51 51" fill="none" xmlns="http://www.w3.org/2000/svg">
<g clip-path="url(#clip0_466_86)">
<rect width="50" height="50" transform="matrix(-1 0 0 -1 50.9771 50.3335)" fill="#003180"/>
<g clip-path="url(#clip1_466_86)">
<path d="M1.09549 13.5113L7.73164 40.7365C8.34934 43.271 10.6028 45.0411 13.2113 45.0411H17.6417V46.9967H16.4219C16.06 46.9967 15.7667 47.2901 15.7667 47.6519C15.7667 48.0138 16.06 48.3071 16.4219 48.3071H18.2969L33.6598 48.3071H35.5347C35.8966 48.3071 36.1899 48.0138 36.1899 47.6519C36.1899 47.2901 35.8966 46.9967 35.5347 46.9967H34.315V45.0411H38.7454C41.354 45.0411 43.6074 43.2708 44.2251 40.7365L50.8595 13.5184C51.2745 11.8155 50.5679 10.0295 49.101 9.07454C48.8414 8.90566 48.6301 8.77118 48.4729 8.67552C41.6952 4.54343 33.9168 2.35944 25.9785 2.35944C17.8018 2.35944 9.82504 4.66645 2.91092 9.03097C2.91043 9.0313 2.89257 9.0426 2.89225 9.04293C1.39705 9.99086 0.675014 11.7865 1.09549 13.5113ZM47.3384 22.4309C46.9701 22.1075 46.5411 21.898 46.0789 21.8286C45.9575 21.8099 45.836 21.8006 45.7144 21.8006C45.1667 21.8006 44.6225 21.9896 44.1219 22.3568C43.2122 23.0246 42.5455 24.2334 42.3386 25.5891C42.1301 26.9448 42.4041 28.2973 43.0721 29.2071C43.5208 29.818 44.1111 30.195 44.7779 30.2968C44.9909 30.3299 45.2053 30.3316 45.4186 30.3067L44.1711 35.4247H38.7788L41.7355 14.6779H49.2281L47.3384 22.4309ZM45.7789 28.829C45.51 28.984 45.2413 29.0429 44.9771 29.0018C44.577 28.9407 44.2947 28.658 44.1285 28.4316C43.662 27.7962 43.477 26.8082 43.634 25.7878C43.7896 24.7675 44.262 23.8799 44.8975 23.4134C45.1241 23.2473 45.4779 23.0617 45.8817 23.1241C46.4412 23.2081 46.7781 23.7139 46.9434 24.0509L45.7789 28.829ZM43.3851 38.6498L8.57178 38.6498L8.10511 36.7353L43.8518 36.7353L43.3851 38.6498ZM37.4553 35.4249L14.4992 35.4249L11.5425 14.6781L40.4119 14.6781L37.4553 35.4249ZM10.2188 14.6781L13.1755 35.4249H7.7857L6.53833 30.3072C6.75062 30.3319 6.96406 30.3301 7.17569 30.2972C7.84384 30.1951 8.43419 29.8182 8.88285 29.2072C9.55067 28.2975 9.82488 26.9449 9.61652 25.5901C9.40931 24.2334 8.74263 23.0247 7.83271 22.357C7.33213 21.9894 6.78781 21.8004 6.24103 21.8004C6.12031 21.8004 5.9991 21.8097 5.87854 21.8282C5.41547 21.8979 4.98647 22.107 4.61808 22.4299L2.72861 14.6782L10.2188 14.6781ZM5.01268 24.0486C5.17844 23.7116 5.51522 23.2078 6.07576 23.1236C6.47707 23.0622 6.83089 23.2471 7.05726 23.4134C7.69282 23.8797 8.16523 24.7675 8.32117 25.7887C8.47792 26.8082 8.29299 27.7962 7.82648 28.4316C7.66022 28.6582 7.37815 28.9407 6.97667 29.002C6.71475 29.0429 6.44661 28.9845 6.17813 28.8303L5.01268 24.0486ZM33.0046 46.9967L18.9521 46.9967V45.0411L33.0046 45.0411V46.9967ZM38.7454 43.7306L13.2113 43.7306C11.2087 43.7306 9.47892 42.3717 9.00455 40.4261L8.89104 39.9602L43.0657 39.9602L42.9522 40.4261C42.4778 42.3717 40.7481 43.7306 38.7454 43.7306ZM3.59365 10.1496L3.6102 10.1393C10.3148 5.90709 18.0496 3.67003 25.9785 3.67003C33.676 3.67003 41.2187 5.78784 47.7909 9.79462C47.9495 9.89127 48.1572 10.0238 48.386 10.173C49.2625 10.7435 49.7413 11.7486 49.6575 12.7704C49.6455 12.9164 49.5477 13.3678 49.5477 13.3678L2.40936 13.3678C2.40936 13.3678 2.32254 12.9844 2.30911 12.8759C2.17627 11.8024 2.66735 10.7371 3.59365 10.1496Z" fill="#74A6BF"/>
<path d="M15.4557 21.1074C16.221 24.0956 16.9559 27.1383 17.6407 30.1532C17.9287 31.4032 19.0594 32.2586 20.3674 32.1855C22.2277 32.074 24.1157 32.0175 25.9786 32.0175C27.8415 32.0175 29.7287 32.0742 31.5879 32.1855C32.8891 32.2591 34.0262 31.4035 34.3147 30.1511C34.9976 27.1439 35.7324 24.1011 36.4984 21.1105C36.678 20.4229 36.5364 19.6866 36.1098 19.09C35.621 18.4064 34.8302 17.9766 33.9406 17.9111C31.3022 17.7163 28.623 17.6176 25.9775 17.6176C23.3319 17.6176 20.6527 17.7163 18.0143 17.9111C17.1247 17.9768 16.3342 18.4066 15.8453 19.0903C15.4187 19.6867 15.277 20.423 15.4557 21.1074ZM16.9111 19.8525C17.1732 19.4862 17.6104 19.2549 18.1108 19.2179C20.7171 19.0255 23.3638 18.9278 25.9773 18.9278C28.5908 18.9278 31.2375 19.0255 33.8439 19.2179C34.3445 19.2549 34.7819 19.4861 35.0438 19.8523C35.2462 20.1355 35.3126 20.4646 35.2295 20.7824C34.46 23.7877 33.7222 26.8421 33.0372 29.8589C32.9008 30.4504 32.3574 30.8797 31.7451 30.8797C31.7186 30.8797 31.6921 30.8789 31.6657 30.8772C29.7808 30.7644 27.8674 30.7069 25.9783 30.7069C24.0891 30.7069 22.1749 30.7644 20.2891 30.8772C19.6381 30.9159 19.0619 30.4854 18.9179 29.8609C18.2311 26.8364 17.4933 23.7821 16.7242 20.7793C16.6423 20.4648 16.7087 20.1355 16.9111 19.8525Z" fill="#74A6BF"/>
<path d="M25.9775 28.9399C28.3398 28.9399 30.2617 27.1293 30.2617 24.9038C30.2617 22.6784 28.3398 20.8677 25.9775 20.8677C23.6151 20.8677 21.6934 22.6784 21.6934 24.9038C21.6934 27.1293 23.6151 28.9399 25.9775 28.9399ZM25.9775 22.1783C27.6173 22.1783 28.9513 23.4011 28.9513 24.904C28.9513 26.4069 27.6171 27.6297 25.9775 27.6297C24.3378 27.6297 23.0038 26.4069 23.0038 24.904C23.0038 23.4011 24.3376 22.1783 25.9775 22.1783Z" fill="#74A6BF"/>
</g>
</g>
<defs>
<clipPath id="clip0_466_86">
<rect width="50" height="50" fill="white" transform="matrix(-1 0 0 -1 50.9771 50.3335)"/>
</clipPath>
<clipPath id="clip1_466_86">
<rect width="50" height="50" fill="white" transform="matrix(-1 0 0 -1 50.9771 50.3335)"/>
</clipPath>
</defs>
</svg>
