<svg width="51" height="51" viewBox="0 0 51 51" fill="none" xmlns="http://www.w3.org/2000/svg">
<g clip-path="url(#clip0_466_131)">
<rect width="50" height="50" transform="translate(0.0229492 0.333496)" fill="#003180"/>
<g clip-path="url(#clip1_466_131)">
<path d="M23.4613 35.0166C23.1914 35.0166 22.9726 35.2354 22.9726 35.5053V38.3786C22.9726 38.6484 23.1914 38.8673 23.4613 38.8673C23.7311 38.8673 23.9499 38.6484 23.9499 38.3786V35.5053C23.9499 35.2354 23.7311 35.0166 23.4613 35.0166Z" fill="#74A6BF"/>
<path d="M27.0745 38.5938V35.5771C27.0745 35.3072 26.8557 35.0884 26.5858 35.0884C26.316 35.0884 26.0972 35.3072 26.0972 35.5771V38.5938C26.0972 38.8637 26.316 39.0825 26.5858 39.0825C26.8557 39.0825 27.0745 38.8637 27.0745 38.5938Z" fill="#74A6BF"/>
<path d="M27.0087 41.7756C26.9378 41.7947 26.8676 41.8043 26.8 41.8043C26.5301 41.8043 26.3113 42.0231 26.3113 42.293C26.3113 42.5629 26.5301 42.7817 26.8 42.7817C26.9533 42.7817 27.109 42.7607 27.2628 42.7193C27.5234 42.6491 27.6777 42.381 27.6076 42.1204C27.5373 41.8598 27.2693 41.7057 27.0087 41.7756Z" fill="#74A6BF"/>
<path d="M50.0229 43.8374C50.0229 42.892 49.5791 42.0284 48.8374 41.4819C49.0501 41.0431 49.1609 40.5619 49.1609 40.0662C49.1609 38.9215 48.5662 37.9137 47.6701 37.3335C47.6827 37.2161 47.6893 37.0974 47.6893 36.978C47.6893 35.1437 46.1973 33.6514 44.3636 33.6514C42.6183 33.6514 41.1838 35.0037 41.0494 36.7156C39.515 36.9768 38.3428 38.3151 38.3428 39.9227C38.3428 40.1977 38.3767 40.4677 38.444 40.73C38.0187 40.9622 37.7036 41.3609 37.5774 41.8315C37.4338 41.8135 37.289 41.8043 37.1435 41.8043C35.6274 41.8043 34.3119 42.7889 33.8503 44.1815C33.4653 44.0441 33.0544 43.995 32.6243 44.0569C32.3469 43.0397 31.4258 42.3072 30.3196 42.3072C30.2738 42.3072 30.2281 42.3085 30.1828 42.311C30.1927 42.2344 30.1978 42.1564 30.1978 42.0775C30.1978 41.1016 29.409 40.3064 28.4354 40.296C28.1599 39.6578 27.5233 39.2185 26.7999 39.2185C26.53 39.2185 26.3112 39.4373 26.3112 39.7072C26.3112 39.9771 26.53 40.1959 26.7999 40.1959C27.2014 40.1959 27.5435 40.4959 27.596 40.8939C27.6143 41.0336 27.6919 41.1583 27.8089 41.2366C27.9262 41.3149 28.071 41.339 28.2071 41.3022C28.2785 41.2832 28.3489 41.2734 28.4162 41.2734C28.8597 41.2734 29.2204 41.6342 29.2204 42.0776C29.2204 42.411 29.0191 42.705 28.7073 42.8263C28.5692 42.88 28.4598 42.9928 28.4185 43.1351C28.3471 43.3817 28.5248 43.6303 28.5248 43.6303C28.6023 43.7626 28.7371 43.8508 28.8892 43.8688C29.0424 43.887 29.1933 43.8321 29.2992 43.7217C29.5694 43.4398 29.9317 43.2847 30.3196 43.2847C31.0934 43.2847 31.7139 43.8912 31.7322 44.6657C31.7359 44.8236 31.8159 44.97 31.9468 45.0587C32.0776 45.1475 32.2435 45.167 32.3913 45.1122C32.4581 45.0874 32.7083 45.0086 32.9775 45.0086C33.3112 45.0086 33.6328 45.1098 33.9075 45.3013C34.0481 45.399 34.2294 45.4163 34.3856 45.3468C34.5419 45.2771 34.6505 45.1308 34.6718 44.9611C34.8273 43.7187 35.89 42.7819 37.1436 42.7819C37.3904 42.7819 37.6347 42.8182 37.8698 42.8898C38.0258 42.9373 38.1955 42.9037 38.3218 42.8003C38.448 42.6967 38.5142 42.537 38.4982 42.3745C38.4957 42.3477 38.4941 42.3209 38.4941 42.2934C38.4941 42.0234 38.6303 41.7822 38.8408 41.6357C39.2469 42.2237 39.9073 42.6174 40.6517 42.6662C40.6627 42.667 40.6736 42.6673 40.6843 42.6673C40.9397 42.6673 41.1546 42.4691 41.1714 42.2108C41.1891 41.9414 40.9852 41.7088 40.7158 41.6911C40.1783 41.6557 39.7239 41.3127 39.5098 40.8353C39.4568 40.7172 39.3202 40.3965 39.3202 39.9231C39.3202 38.6678 40.3415 37.6463 41.5969 37.6463C42.2116 37.6463 42.7831 37.8871 43.208 38.3148C42.5819 39.4069 42.7316 40.8261 43.6635 41.7579C43.7588 41.8533 43.8841 41.9011 44.009 41.9011C44.134 41.9011 44.2592 41.8533 44.3545 41.7579C44.5455 41.5671 44.5455 41.2576 44.3545 41.0669C43.6358 40.3481 43.6213 39.1877 44.3108 38.4509C44.3251 38.4356 44.36 38.3985 44.3632 38.3952C44.782 38.0083 45.3313 37.79 45.9068 37.79C47.1622 37.79 48.1837 38.8113 48.1837 40.0667C48.1837 40.5354 48.0421 40.9856 47.7742 41.3687C47.6926 41.4854 47.6659 41.6317 47.7012 41.7698C47.7364 41.9077 47.8301 42.0234 47.9578 42.0866C48.6288 42.4191 49.0456 43.09 49.0456 43.8378C49.0456 44.726 48.4464 45.503 47.5884 45.7276C47.4608 45.7609 47.3522 45.8445 47.2871 45.9591C47.2221 46.0737 47.206 46.2098 47.2427 46.3363C47.2952 46.5171 47.3217 46.7037 47.3217 46.8907C47.3217 46.9049 47.3215 46.919 47.3212 46.9333H2.72472C2.72448 46.9191 2.72607 46.7915 2.72986 46.7421C2.74012 46.6051 2.76467 46.4693 2.80316 46.3363C2.83981 46.2098 2.8238 46.0738 2.75869 45.9591C2.69357 45.8445 2.58508 45.761 2.45754 45.7276C1.59954 45.5025 1.0003 44.7255 1.0003 43.8374C1.0003 43.2553 1.25368 42.7207 1.68189 42.3551C1.71414 42.3276 1.84987 42.2268 1.87235 42.2121C2.57177 41.7556 3.56293 41.7616 4.18856 42.3871C4.28397 42.4825 4.40895 42.5303 4.53405 42.5303C4.65915 42.5303 4.78413 42.4825 4.87967 42.3871C5.0705 42.1963 5.0705 41.8868 4.87967 41.6961C4.12271 40.939 3.03149 40.7184 2.07698 41.0292C1.93649 40.7296 1.86233 40.4029 1.86233 40.0662C1.86233 38.8109 2.88367 37.7895 4.13908 37.7895C4.69177 37.7895 5.21893 37.9927 5.63089 38.3512C5.43982 38.7389 5.33817 39.1678 5.33817 39.6124C5.33817 40.3757 5.63578 41.0937 6.17613 41.634C6.27154 41.7294 6.39652 41.7772 6.52163 41.7772C6.64673 41.7772 6.77171 41.7294 6.86724 41.634C7.05807 41.4432 7.05807 41.1337 6.86724 40.943C6.51148 40.5873 6.31553 40.1147 6.31553 39.6124C6.31553 39.1268 6.50012 38.67 6.83377 38.3186C7.25904 37.8882 7.83226 37.6459 8.44885 37.6459C9.70426 37.6459 10.7256 38.6673 10.7256 39.9227C10.7256 40.2369 10.6624 40.5417 10.5378 40.8285C10.4786 40.9649 10.4847 41.121 10.5544 41.2524C10.6242 41.3838 10.75 41.4762 10.8963 41.5036C11.209 41.5621 11.4483 41.7986 11.524 42.0958C10.4772 42.5928 9.7943 43.7025 9.89863 44.9232C9.9216 45.1921 10.1582 45.3915 10.4271 45.3685C10.696 45.3455 10.8954 45.1089 10.8724 44.84C10.7967 43.9535 11.3523 43.1576 12.1638 42.8925C12.4536 42.8014 12.8043 42.7818 12.9022 42.7818C14.1557 42.7818 15.2184 43.7186 15.374 44.9609C15.3953 45.1308 15.5039 45.2771 15.6601 45.3466C15.8164 45.4162 15.9979 45.3989 16.1382 45.3012C16.4222 45.1032 16.7835 45.0049 17.1418 45.0128C17.3632 45.0128 17.5914 45.0755 17.7042 45.1187C17.7046 45.1188 17.7051 45.1189 17.7056 45.1192C18.1201 45.2973 18.4113 45.7095 18.4113 46.1884C18.4113 46.4583 18.6301 46.6771 18.8999 46.6771C19.1698 46.6771 19.3886 46.4583 19.3886 46.1884C19.3886 45.4137 18.9736 44.7358 18.3556 44.36C18.5095 43.745 19.069 43.2845 19.7259 43.2845C20.1138 43.2845 20.4763 43.4398 20.7464 43.7215C20.8525 43.832 21.0042 43.8863 21.1563 43.8686C21.3085 43.8507 21.4434 43.7625 21.5208 43.6302C21.5208 43.6302 21.7205 43.3574 21.6271 43.135C21.5697 42.9984 21.4765 42.8799 21.3383 42.8262C21.0265 42.7048 20.8252 42.4109 20.8252 42.0775C20.8252 41.634 21.186 41.2733 21.6295 41.2733C21.6966 41.2733 21.767 41.2829 21.8385 41.3021C21.9745 41.3387 22.1195 41.3147 22.2365 41.2365C22.3535 41.1583 22.4312 41.0334 22.4496 40.8939C22.502 40.4959 22.8442 40.1957 23.2456 40.1957C23.5155 40.1957 23.7343 39.9769 23.7343 39.7071C23.7343 39.4372 23.5155 39.2184 23.2456 39.2184C22.5224 39.2184 21.8859 39.6578 21.6103 40.2959C20.6367 40.3063 19.8479 41.1015 19.8479 42.0774C19.8479 42.1563 19.853 42.2343 19.8629 42.3109C19.8174 42.3083 19.7719 42.3071 19.7259 42.3071C18.6394 42.3071 17.7084 43.0507 17.4243 44.0557C17.0094 43.9978 16.5839 44.0426 16.1952 44.1813C15.7337 42.7885 14.4182 41.8041 12.902 41.8041C12.7565 41.8041 12.6118 41.8131 12.4681 41.8312C12.3418 41.3607 12.0268 40.9621 11.6015 40.7297C11.6687 40.4676 11.7027 40.1974 11.7027 39.9224C11.7027 38.1281 10.2429 36.6683 8.4486 36.6683C7.60136 36.6683 6.81092 36.9872 6.21131 37.5581C5.63211 37.0791 4.90129 36.812 4.13883 36.812C2.34441 36.812 0.884732 38.2718 0.884732 40.0661C0.884732 40.5618 0.995539 41.043 1.20824 41.4818C0.46679 42.0285 0.0229492 42.892 0.0229492 43.8374C0.0229492 45.012 0.722124 46.0574 1.77022 46.5193C1.7547 46.6422 1.74688 46.7661 1.74688 46.8901C1.74688 47.1023 1.77009 47.3161 1.81578 47.5255C1.86477 47.75 2.06342 47.9099 2.29322 47.9099H47.7527C47.9825 47.9099 48.1812 47.7497 48.2301 47.5254C48.2758 47.3159 48.2989 47.1022 48.2989 46.8901C48.2989 46.766 48.2912 46.6422 48.2756 46.5193C49.3237 46.0574 50.0229 45.0121 50.0229 43.8374ZM43.8343 37.5583C43.3392 37.0869 42.7137 36.7879 42.0338 36.6979C42.1728 35.5344 43.1638 34.6287 44.3637 34.6287C45.6363 34.6287 46.6734 35.6475 46.7086 36.9124C46.4521 36.8472 46.1834 36.8123 45.9067 36.8123C45.1442 36.8123 44.4135 37.0792 43.8343 37.5583Z" fill="#74A6BF"/>
<path d="M22.8458 45.931C22.8003 46.1969 22.979 46.4494 23.2451 46.4949C23.273 46.4996 23.3007 46.5021 23.3281 46.5021C23.5618 46.5021 23.7684 46.3339 23.8092 46.0958C23.9406 45.3268 24.5476 44.7308 25.3193 44.6124C26.0401 44.5021 26.753 44.8317 27.1355 45.4524C27.277 45.6821 27.578 45.7537 27.8079 45.6121C28.0377 45.4705 28.1092 45.1695 27.9676 44.9397C27.3786 43.9838 26.281 43.4773 25.1711 43.6463C25.1265 43.6531 25.083 43.663 25.0392 43.6719C24.7611 42.7172 23.9075 42.0221 22.9013 41.9558C22.632 41.9369 22.3994 42.142 22.3816 42.4114C22.3638 42.6806 22.5678 42.9134 22.8372 42.9311C23.4627 42.9723 23.9879 43.4245 24.123 44.0337C23.4594 44.4453 22.9834 45.1262 22.8458 45.931Z" fill="#74A6BF"/>
<path d="M21.6834 34.7009H28.3637C28.6335 34.7009 28.8523 34.4821 28.8523 34.2123V26.9934C28.8523 26.9025 28.827 26.8134 28.7792 26.7362L27.0745 23.9829V7.52449C27.0745 7.46732 27.0645 7.41051 27.045 7.35688L25.4827 3.0779C25.4123 2.88511 25.2288 2.75684 25.0236 2.75684C24.8183 2.75684 24.6349 2.88511 24.5646 3.0779L23.0023 7.35688C22.9826 7.41051 22.9726 7.46732 22.9726 7.52449V23.983L21.2679 26.7362C21.2201 26.8136 21.1948 26.9025 21.1948 26.9934V34.2123C21.1948 34.4821 21.4136 34.7009 21.6834 34.7009ZM26.0972 8.01317V8.65199H23.9499V8.01317H26.0972ZM23.9499 33.7236V9.62935H26.0972V33.7236H23.9499ZM27.875 27.1324V33.7236H27.0745V25.8396L27.875 27.1324ZM25.0236 4.67037L25.8872 7.03582H24.1599L25.0236 4.67037ZM22.1721 27.1324L22.9726 25.8396V33.7236H22.1721V27.1324Z" fill="#74A6BF"/>
</g>
</g>
<defs>
<clipPath id="clip0_466_131">
<rect width="50" height="50" fill="white" transform="translate(0.0229492 0.333496)"/>
</clipPath>
<clipPath id="clip1_466_131">
<rect width="50" height="50" fill="white" transform="translate(0.0229492 0.333496)"/>
</clipPath>
</defs>
</svg>
