<svg width="51" height="51" viewBox="0 0 51 51" fill="none" xmlns="http://www.w3.org/2000/svg">
<g clip-path="url(#clip0_466_163)">
<rect width="50" height="50" transform="translate(0.0229492 0.333496)" fill="#003180"/>
<g clip-path="url(#clip1_466_163)">
<path d="M1.82225 23.2939C0.830127 23.2939 0.0229492 24.1011 0.0229492 25.0932C0.0229492 26.0854 0.830127 26.8924 1.82225 26.8924C2.81438 26.8924 3.62145 26.0853 3.62145 25.0932C3.62145 24.1011 2.81438 23.2939 1.82225 23.2939ZM1.82225 26.0159C1.31343 26.0159 0.899483 25.602 0.899483 25.0932C0.899483 24.5844 1.31343 24.1705 1.82225 24.1705C2.33108 24.1705 2.74492 24.5844 2.74492 25.0932C2.74492 25.602 2.33097 26.0159 1.82225 26.0159Z" fill="#74A6BF"/>
<path d="M44.658 23.6338C43.8534 23.6338 43.199 24.2883 43.199 25.0928C43.199 25.8972 43.8535 26.5518 44.658 26.5518C45.4624 26.5518 46.117 25.8972 46.117 25.0928C46.117 24.2883 45.4625 23.6338 44.658 23.6338ZM44.658 25.6753C44.3367 25.6753 44.0755 25.414 44.0755 25.0929C44.0755 24.7716 44.3368 24.5104 44.658 24.5104C44.9791 24.5104 45.2404 24.7717 45.2404 25.0929C45.2404 25.414 44.9792 25.6753 44.658 25.6753Z" fill="#74A6BF"/>
<path d="M49.1298 25.9861C49.6231 25.9861 50.0229 25.5862 50.0229 25.0929C50.0229 24.5996 49.6231 24.1997 49.1298 24.1997C48.6365 24.1997 48.2366 24.5996 48.2366 25.0929C48.2366 25.5862 48.6365 25.9861 49.1298 25.9861Z" fill="#74A6BF"/>
<path d="M26.3566 25.093C26.3566 26.1789 27.24 27.0623 28.3259 27.0623C29.4118 27.0623 30.2954 26.1789 30.2954 25.093C30.2954 24.0071 29.4119 23.1235 28.3259 23.1235C27.2399 23.1235 26.3566 24.0071 26.3566 25.093ZM29.4187 25.093C29.4187 25.6956 28.9284 26.1858 28.3258 26.1858C27.7233 26.1858 27.233 25.6955 27.233 25.093C27.233 24.4904 27.7233 24.0001 28.3258 24.0001C28.9284 24.0001 29.4187 24.4904 29.4187 25.093Z" fill="#74A6BF"/>
<path d="M37.0751 20.8148C36.0778 20.8148 35.1598 21.1588 34.4316 21.733L33.8123 21.4497C33.0876 21.1168 32.6659 20.3347 32.7872 19.5472L32.9181 18.689C32.9368 18.5664 32.9028 18.4417 32.8244 18.3458C32.7461 18.2498 32.6306 18.1914 32.5069 18.1852L31.3668 18.1283C30.6183 18.0898 29.9664 17.5843 29.7443 16.8696L29.4734 16.0011C29.4377 15.8863 29.3562 15.7912 29.2482 15.7383C29.1404 15.6853 29.0152 15.6789 28.9025 15.7209L27.8478 16.1126C27.1825 16.3612 26.4311 16.1913 25.9349 15.6803L25.2231 14.9454C25.1406 14.8601 25.0269 14.812 24.9082 14.812C24.7896 14.812 24.676 14.8601 24.5933 14.9455L23.8818 15.6802C23.3861 16.1916 22.6357 16.3613 21.969 16.1123L20.9139 15.7209C20.8011 15.679 20.676 15.6854 20.568 15.7385C20.46 15.7916 20.3785 15.8869 20.3429 16.0018L20.0735 16.8697C19.8505 17.5842 19.1986 18.09 18.4517 18.1284L17.311 18.1855C17.1872 18.1917 17.0718 18.25 16.9934 18.346C16.915 18.442 16.8809 18.5668 16.8997 18.6892L17.0306 19.5474C17.1508 20.3349 16.7286 21.1172 16.0045 21.4498L15.031 21.8957C14.9158 21.9485 14.8291 22.0486 14.7931 22.1701C14.7572 22.2916 14.7757 22.4227 14.8439 22.5297L15.3378 23.3049C15.7842 24.0052 15.6946 24.9132 15.1202 25.5127L14.4539 26.2075C14.3657 26.2994 14.3219 26.4252 14.3338 26.552C14.3458 26.6789 14.4124 26.7941 14.5162 26.868L15.3504 27.4613C16.0167 27.9367 16.2777 28.8017 15.9851 29.5646L15.6701 30.3852C15.6251 30.5023 15.6325 30.6331 15.6905 30.7444C15.7485 30.8558 15.8513 30.9369 15.9731 30.9674L17.0623 31.2397C17.8163 31.4274 18.361 32.0757 18.4175 32.8523L18.4797 33.7233C18.4884 33.8448 18.5472 33.9573 18.6421 34.0336C18.737 34.11 18.8594 34.1434 18.9799 34.1259L20.1197 33.9599C20.84 33.8544 21.5466 34.19 21.9196 34.8147L22.4122 35.6417C22.473 35.7439 22.5727 35.8169 22.6884 35.8441C22.8041 35.8713 22.9258 35.8504 23.0259 35.786L23.9386 35.1988C24.5274 34.8197 25.2893 34.8197 25.8788 35.1987L26.79 35.7858C26.8614 35.8318 26.944 35.8557 27.0275 35.8557C27.0609 35.8557 27.0943 35.8519 27.1274 35.8442C27.2431 35.8172 27.3428 35.7442 27.4037 35.6422L27.8977 34.8151C28.2707 34.19 28.9771 33.854 29.6982 33.9599L30.8375 34.1258C30.9584 34.1433 31.0805 34.1099 31.1755 34.0335C31.2703 33.9572 31.3292 33.8447 31.3378 33.7232L31.4 32.8522C31.4553 32.0758 31.9995 31.4278 32.7541 31.2396L33.843 30.9674C33.9646 30.9371 34.0675 30.856 34.1254 30.7448C34.1833 30.6336 34.1908 30.5028 34.146 30.3857L33.8322 29.565C33.6343 29.0485 33.6886 28.4818 33.9586 28.0202C34.7394 28.851 35.8472 29.3715 37.0746 29.3715C39.4337 29.3715 41.353 27.4523 41.353 25.0932C41.353 22.7341 39.4342 20.8148 37.0751 20.8148ZM33.0139 29.878L33.151 30.2367L32.542 30.3889C31.4185 30.6691 30.6082 31.6338 30.5257 32.7896L30.4971 33.1902L29.8248 33.0923C28.7525 32.9349 27.7007 33.435 27.145 34.3655L26.8836 34.8032L26.353 34.4613C25.4749 33.897 24.3408 33.897 23.464 34.4614L22.933 34.8031L22.6723 34.3655C22.1167 33.4348 21.0649 32.9357 19.9929 33.0922L19.3201 33.1902L19.2914 32.7889C19.2074 31.6329 18.3966 30.6684 17.2742 30.389L16.6656 30.2368L16.8033 29.8783C17.2388 28.7423 16.8506 27.4549 15.8587 26.7471L15.4375 26.4476L15.7526 26.119C16.6076 25.2265 16.7409 23.8755 16.0767 22.8334L15.8532 22.4827L16.3696 22.2461C17.4476 21.7511 18.0755 20.5867 17.8967 19.4147L17.839 19.0361L18.4957 19.0033C19.6079 18.9462 20.5782 18.1936 20.9101 17.1297L21.0425 16.7031L21.663 16.9333C22.6552 17.304 23.7729 17.0512 24.5111 16.2897L24.9079 15.8798L25.3052 16.2902C26.0442 17.0511 27.1624 17.3036 28.1533 16.9336L28.7739 16.703L28.9069 17.1297C29.2373 18.1932 30.2075 18.9461 31.3218 19.0033L31.978 19.036L31.9204 19.414C31.74 20.5861 32.3674 21.7505 33.4468 22.2462L33.7612 22.3901C33.1587 23.1275 32.7965 24.0685 32.7965 25.0928C32.7965 25.8927 33.0177 26.6417 33.4014 27.2829C32.8314 28.0132 32.6759 28.9953 33.0139 29.878ZM37.0751 28.4948C35.1994 28.4948 33.6734 26.9688 33.6734 25.0931C33.6734 23.2174 35.1994 21.6914 37.0751 21.6914C38.9509 21.6914 40.4769 23.2174 40.4769 25.0931C40.4769 26.9688 38.9509 28.4948 37.0751 28.4948Z" fill="#74A6BF"/>
<path d="M24.9083 18.3052C22.282 18.3052 19.8923 19.7232 18.6306 22.0162C17.4433 22.5334 16.6108 23.7176 16.6108 25.0932C16.6108 26.2862 17.2375 27.3351 18.1782 27.93C19.208 30.7518 21.8912 32.6369 24.9083 32.6369C28.8603 32.6369 32.0755 29.4224 32.0755 25.4711C32.0755 21.5198 28.8602 18.3052 24.9083 18.3052ZM17.4873 25.0931C17.4873 23.7265 18.5989 22.6149 19.9654 22.6149C21.3318 22.6149 22.4436 23.7265 22.4436 25.0931C22.4436 26.4595 21.332 27.5712 19.9654 27.5712C18.599 27.5712 17.4873 26.4595 17.4873 25.0931ZM24.9083 31.7603C22.5405 31.7603 20.4066 30.4378 19.3351 28.3875C19.5394 28.4265 19.75 28.4478 19.9656 28.4478C21.8154 28.4478 23.3203 26.9429 23.3203 25.0931C23.3203 23.2432 21.8154 21.7383 19.9656 21.7383C19.9247 21.7383 19.8841 21.74 19.8436 21.7414C21.0178 20.1428 22.8829 19.1817 24.9083 19.1817C28.377 19.1817 31.199 22.0031 31.199 25.4709C31.199 28.9388 28.3769 31.7603 24.9083 31.7603Z" fill="#74A6BF"/>
<path d="M13.0532 21.0323C12.5151 20.4943 11.4905 20.6359 10.163 21.4261C9.91622 21.3756 9.66268 21.3493 9.40498 21.3493C8.40508 21.3493 7.46489 21.7387 6.75785 22.4457C5.83541 23.3682 5.49674 24.656 5.7402 25.8475C4.94825 27.1766 4.80603 28.2025 5.34444 28.741C5.55996 28.9565 5.85327 29.0633 6.21254 29.0633C6.67732 29.0633 7.25408 28.8818 7.91466 28.5281C8.37889 28.7296 8.88367 28.8364 9.40498 28.8364C10.4049 28.8364 11.345 28.447 12.0521 27.74C12.7591 27.0328 13.1485 26.0928 13.1485 25.0929C13.1485 24.5718 13.0418 24.0672 12.8404 23.6031C13.4682 22.4309 13.5473 21.5263 13.0532 21.0323ZM7.37767 23.0656C7.91915 22.5241 8.63922 22.2258 9.40498 22.2258C10.1707 22.2258 10.8908 22.5241 11.4323 23.0656C11.5903 23.2235 11.7268 23.3971 11.842 23.582C11.4034 24.296 10.7947 25.0507 10.0787 25.7666C9.36214 26.4833 8.60767 27.0918 7.89406 27.5298C7.70911 27.4147 7.53556 27.2782 7.37767 27.1202C6.25987 26.0024 6.25987 24.1836 7.37767 23.0656ZM5.96437 28.1213C5.8571 28.0141 5.85009 27.618 6.15184 26.944C6.31389 27.229 6.51527 27.4974 6.75796 27.7401C6.84397 27.8261 6.93349 27.9072 7.02607 27.9837C6.4228 28.2338 6.06517 28.2223 5.96437 28.1213ZM11.4323 27.1203C10.8908 27.6618 10.1709 27.96 9.40509 27.96C9.23417 27.96 9.06576 27.9443 8.90087 27.9152C9.50151 27.4913 10.1136 26.9716 10.6987 26.3865C11.2835 25.8017 11.8031 25.1896 12.2273 24.5886C12.2565 24.7535 12.2721 24.922 12.2721 25.093C12.272 25.8587 11.9739 26.5787 11.4323 27.1203ZM12.0521 22.4459C11.8119 22.2058 11.5444 22.0032 11.2572 21.8392C11.9307 21.5378 12.3264 21.545 12.4334 21.6522C12.5343 21.7531 12.5458 22.1104 12.2956 22.7139C12.2192 22.6214 12.1381 22.5318 12.0521 22.4459Z" fill="#74A6BF"/>
</g>
</g>
<defs>
<clipPath id="clip0_466_163">
<rect width="50" height="50" fill="white" transform="translate(0.0229492 0.333496)"/>
</clipPath>
<clipPath id="clip1_466_163">
<rect width="50" height="50" fill="white" transform="translate(0.0229492 0.333496)"/>
</clipPath>
</defs>
</svg>
