<svg width="51" height="51" viewBox="0 0 51 51" fill="none" xmlns="http://www.w3.org/2000/svg">
<g clip-path="url(#clip0_466_108)">
<rect width="50" height="50" transform="translate(0.0229492 0.333496)" fill="#003180"/>
<g clip-path="url(#clip1_466_108)">
<path d="M49.8638 42.3985L34.6867 27.2216C34.5849 27.1198 34.4466 27.0626 34.3027 27.0626C34.1588 27.0626 34.0205 27.1198 33.9187 27.2216L30.8091 30.3312L29.6608 29.183L34.3076 24.5362L35.4093 25.6379C35.512 25.7407 35.6506 25.7969 35.7933 25.7969C35.8286 25.7969 35.8642 25.7935 35.8995 25.7864C36.0775 25.7508 36.2259 25.6288 36.2953 25.4611L37.777 21.8736C37.8608 21.6707 37.8142 21.4374 37.659 21.2822L33.7507 17.3739L35.6709 15.4538C35.8832 15.2417 35.8832 14.8978 35.6709 14.6856C35.4587 14.4735 35.1147 14.4735 34.9029 14.6856L32.9827 16.6059L29.0742 12.6973C28.9191 12.5421 28.6858 12.4957 28.4828 12.5793L24.8954 14.061C24.7277 14.1303 24.6056 14.2788 24.57 14.4568C24.5346 14.6349 24.5902 14.8189 24.7186 14.9472L25.8204 16.049L21.1736 20.6956L20.0254 19.5474L23.135 16.4378C23.3471 16.2255 23.3471 15.8817 23.135 15.6696L7.95789 0.492507C7.85591 0.390664 7.71781 0.333496 7.57373 0.333496C7.42966 0.333496 7.29156 0.390664 7.18958 0.492507L0.182089 7.50027C-0.0300161 7.71251 -0.0300161 8.05634 0.182089 8.26844L15.3592 23.4455C15.4652 23.5516 15.6043 23.6045 15.7433 23.6045C15.8822 23.6045 16.0213 23.5514 16.1275 23.4455L19.2573 20.3157L20.4056 21.4639L14.2226 27.6469C14.0105 27.8591 14.0105 28.203 14.2226 28.4151L15.3361 29.5286L12.7247 32.1399C12.5126 32.3522 12.5126 32.696 12.7247 32.9081L17.4483 37.6317C17.5544 37.7378 17.6934 37.7908 17.8325 37.7908C17.9715 37.7908 18.1104 37.7377 18.2166 37.6317L20.828 35.0203L21.9416 36.134C22.0477 36.24 22.1867 36.293 22.3258 36.293C22.4648 36.293 22.6038 36.2399 22.7099 36.134L28.8929 29.951L30.0412 31.0992L26.9113 34.2291C26.6991 34.4413 26.6991 34.7852 26.9113 34.9973L42.0884 50.1743C42.1902 50.2762 42.3285 50.3334 42.4724 50.3334C42.6164 50.3334 42.7546 50.2762 42.8564 50.1743L49.8639 43.1667C50.0759 42.9546 50.0759 42.6108 49.8638 42.3985ZM11.886 5.95701L13.274 7.34493L7.03437 13.5844L5.64645 12.1966L11.886 5.95701ZM4.87828 11.4283L3.49036 10.0405L9.72982 3.80105L11.1177 5.18897L4.87828 11.4283ZM14.0421 8.11323L15.4301 9.50115L9.1906 15.7406L7.80268 14.3527L14.0421 8.11323ZM16.1982 10.2692L17.5861 11.6571L11.3465 17.8967L9.95863 16.5088L16.1982 10.2692ZM18.3543 12.4254L19.7422 13.8133L13.5028 20.0528L12.1149 18.6649L18.3543 12.4254ZM7.57373 1.64483L8.96165 3.03275L2.7222 9.27221L1.33428 7.88429L7.57373 1.64483ZM15.7432 22.2932L14.2708 20.8208L20.5103 14.5814L21.9825 16.0536L15.7432 22.2932ZM24.0539 33.2537L17.1029 26.3027L24.9755 18.4301L31.9265 25.381L24.0539 33.2537ZM28.5625 13.7218L36.6348 21.794L35.6021 24.2944L26.0622 14.7545L28.5625 13.7218ZM33.5395 23.768L32.6948 24.6128L25.7438 17.6618L26.5885 16.817L33.5395 23.768ZM17.8325 36.4796L13.877 32.5241L16.1044 30.2969L20.0598 34.2523L17.8325 36.4796ZM22.3257 34.9819L15.3747 28.0309L16.3347 27.0709L23.2857 34.0219L22.3257 34.9819ZM38.6993 32.7704L40.0874 34.1585L33.8479 40.3979L32.46 39.01L38.6993 32.7704ZM31.6917 38.2417L30.3038 36.8538L36.5431 30.6143L37.931 32.0023L31.6917 38.2417ZM40.8554 34.9265L42.2433 36.3146L36.0039 42.5539L34.616 41.166L40.8554 34.9265ZM43.0115 37.0826L44.3994 38.4705L38.16 44.71L36.7721 43.3221L43.0115 37.0826ZM45.1676 39.2387L46.5555 40.6266L40.3161 46.8659L38.9281 45.478L45.1676 39.2387ZM34.3027 28.3738L35.7751 29.8462L29.5357 36.0856L28.0634 34.6132L34.3027 28.3738ZM42.4721 49.0222L41.0842 47.6342L47.3237 41.3949L48.7116 42.7828L42.4721 49.0222Z" fill="#74A6BF"/>
<path d="M24.5338 21.1375L20.0406 25.6307C19.8285 25.8429 19.8285 26.1868 20.0406 26.3989L23.9577 30.316C24.0638 30.4221 24.2028 30.475 24.3419 30.475C24.4808 30.475 24.6198 30.4219 24.726 30.316L29.2192 25.8228C29.3211 25.721 29.3784 25.5828 29.3784 25.4387C29.3784 25.2946 29.3211 25.1565 29.2192 25.0545L25.3019 21.1374C25.0898 20.9255 24.7461 20.9255 24.5338 21.1375ZM24.3419 29.1638L21.1929 26.0149L24.918 22.2897L28.067 25.4387L24.3419 29.1638Z" fill="#74A6BF"/>
</g>
</g>
<defs>
<clipPath id="clip0_466_108">
<rect width="50" height="50" fill="white" transform="translate(0.0229492 0.333496)"/>
</clipPath>
<clipPath id="clip1_466_108">
<rect width="50" height="50" fill="white" transform="translate(0.0229492 0.333496)"/>
</clipPath>
</defs>
</svg>
