<svg width="51" height="51" viewBox="0 0 51 51" fill="none" xmlns="http://www.w3.org/2000/svg">
<g clip-path="url(#clip0_466_200)">
<rect width="50" height="50" transform="matrix(-1 0 0 -1 50.9771 50.3335)" fill="#003180"/>
<g clip-path="url(#clip1_466_200)">
<path d="M1.15009 7.28328L17.1963 23.3296C17.427 23.5602 17.801 23.5602 18.0313 23.3296L20.5403 20.8207L21.9662 22.2466L19.2527 24.9602C19.0219 25.1909 19.0219 25.5648 19.2527 25.7954L21.9664 28.5091L20.6291 29.8463L18.1201 27.3373C18.0093 27.2265 17.859 27.1644 17.7025 27.1644C17.546 27.1644 17.3957 27.2265 17.285 27.3373L1.23868 43.3836C1.12794 43.4943 1.06564 43.6446 1.06564 43.8013C1.06564 43.9579 1.12794 44.1081 1.23868 44.2189L7.09175 50.0719C7.32252 50.3025 7.69651 50.3025 7.92683 50.0719L20.8042 37.1945L20.8047 37.1942L20.805 37.1937L23.9731 34.0256C24.2039 33.7948 24.2039 33.421 23.9731 33.1903L21.4645 30.6816L22.8017 29.3443L25.5153 32.0579C25.626 32.1686 25.7763 32.2308 25.9328 32.2308C26.0893 32.2308 26.2396 32.1686 26.3504 32.0579L29.0639 29.3443L30.4899 30.7703L27.9811 33.2791C27.7503 33.5098 27.7503 33.8837 27.9811 34.1143L44.0273 50.1606C44.138 50.2713 44.2882 50.3335 44.4448 50.3335C44.6015 50.3335 44.7516 50.2713 44.8623 50.1606L50.7154 44.3075C50.8262 44.1968 50.8885 44.0465 50.8885 43.8898C50.8885 43.7332 50.8262 43.583 50.7154 43.4722L34.669 27.4258C34.5582 27.3151 34.4079 27.253 34.2514 27.253C34.0949 27.253 33.9446 27.3151 33.8339 27.4258L31.325 29.9348L29.899 28.509L32.6126 25.7954C32.8433 25.5646 32.8433 25.1908 32.6126 24.9602L29.8992 22.2468L31.4138 20.7321L33.9226 23.2409C34.1534 23.4715 34.5274 23.4715 34.7577 23.2409L50.804 7.19454C50.9147 7.08381 50.9771 6.93365 50.9771 6.777C50.9771 6.62035 50.9147 6.4702 50.804 6.35931L44.9509 0.506386C44.8356 0.391075 44.6844 0.333496 44.5334 0.333496C44.3824 0.333496 44.231 0.391224 44.1159 0.506386L28.0695 16.5527C27.9588 16.6634 27.8965 16.8137 27.8965 16.9704C27.8965 17.127 27.9588 17.2772 28.0695 17.3881L30.5786 19.897L29.0639 21.4117L26.3502 18.698C26.2395 18.5872 26.0892 18.5251 25.9327 18.5251C25.7762 18.5251 25.6259 18.5872 25.5151 18.698L22.8014 21.4117L21.3755 19.9857L23.8844 17.477C23.9951 17.3662 24.0574 17.2159 24.0574 17.0593C24.0574 16.9026 23.9951 16.7525 23.8844 16.6416L7.8381 0.595272C7.72279 0.479961 7.5716 0.422379 7.42056 0.422379C7.26952 0.422379 7.11818 0.48011 7.00302 0.595272L1.14994 6.4482C1.03921 6.55893 0.976902 6.70923 0.976902 6.86588C0.976902 7.02253 1.03936 7.1724 1.15009 7.28328ZM17.7027 28.59L19.7941 30.6816L17.4607 33.0149L15.3693 30.9235L17.7027 28.59ZM17.1506 39.1776L15.0595 37.0865L17.4608 34.6852L19.5519 36.7763L17.1506 39.1776ZM13.9143 42.414L11.8232 40.3227L14.2245 37.9216L16.3156 40.0127L13.9143 42.414ZM10.6777 45.6505L8.58651 43.5593L10.9878 41.158L13.079 43.2492L10.6777 45.6505ZM8.06133 38.2315L10.1527 40.3229L7.75143 42.7242L5.66004 40.6328L8.06133 38.2315ZM11.2977 34.9951L13.3891 37.0865L10.9878 39.4877L8.89641 37.3963L11.2977 34.9951ZM14.2243 36.2513L12.1329 34.1599L14.5341 31.7588L16.6255 33.8502L14.2243 36.2513ZM4.82482 41.4679L6.91621 43.5593L4.58298 45.8925L2.49159 43.8011L4.82482 41.4679ZM7.50929 48.819L5.41806 46.7277L7.75128 44.3945L9.84252 46.4857L7.50929 48.819ZM22.7202 33.6079L20.387 35.9411L18.2959 33.85L20.6293 31.5166L22.7202 33.6079ZM31.325 31.6054L33.6583 33.9386L31.5671 36.0298L29.2339 33.6966L31.325 31.6054ZM39.8212 34.2486L37.7299 36.3399L35.3286 33.9386L37.4199 31.8474L39.8212 34.2486ZM43.0575 37.485L40.9663 39.5763L38.565 37.1751L40.6562 35.0837L43.0575 37.485ZM46.2941 40.7214L44.2028 42.8126L41.8017 40.4115L43.8928 38.3202L46.2941 40.7214ZM38.8751 43.3379L40.9663 41.2467L43.3676 43.6479L41.2764 45.7391L38.8751 43.3379ZM35.6387 40.1016L37.7299 38.0103L40.1312 40.4115L38.04 42.5027L35.6387 40.1016ZM36.8947 37.1751L34.8035 39.2664L32.4022 36.8651L34.4934 34.7738L36.8947 37.1751ZM44.4448 48.9077L42.1114 46.5743L44.2027 44.4831L46.536 46.8165L44.4448 48.9077ZM47.3713 45.9812L45.0379 43.6479L47.1291 41.5566L49.4625 43.8898L47.3713 45.9812ZM34.2514 28.6789L36.5848 31.0123L34.4936 33.1035L32.1602 30.7703L34.2514 28.6789ZM34.3402 21.9881L32.2489 19.8969L34.5821 17.5636L36.6734 19.6549L34.3402 21.9881ZM34.8922 11.4005L36.9836 13.4919L34.5823 15.8932L32.4909 13.8018L34.8922 11.4005ZM38.1286 8.16412L40.22 10.2557L37.8188 12.6568L35.7274 10.5654L38.1286 8.16412ZM41.3649 4.92775L43.4565 7.01929L41.0553 9.42043L38.9639 7.3289L41.3649 4.92775ZM43.9815 12.3467L41.8904 10.2557L44.2916 7.85452L46.3826 9.9456L43.9815 12.3467ZM40.7451 15.5831L38.654 13.4919L41.0552 11.0907L43.1463 13.1818L40.7451 15.5831ZM37.8188 14.3271L39.9099 16.4183L37.5086 18.8196L35.4174 16.7284L37.8188 14.3271ZM47.2179 9.11023L45.1268 7.01914L47.4602 4.68591L49.5512 6.777L47.2179 9.11023ZM44.5334 1.75916L46.6249 3.85069L44.2916 6.18406L42.2 4.09253L44.5334 1.75916ZM29.3225 16.9702L31.6557 14.637L33.7471 16.7284L31.4138 19.0616L29.3225 16.9702ZM25.9327 19.9506L31.3598 25.3779L25.9327 30.8051L23.2213 28.0938C23.2206 28.093 23.2202 28.0922 23.2194 28.0914C23.2187 28.0907 23.2178 28.0902 23.2171 28.0895L20.5056 25.378L25.9327 19.9506ZM12.9903 7.41763L10.8989 9.50902L8.49763 7.10773L10.589 5.01634L12.9903 7.41763ZM16.2267 10.654L14.1354 12.7454L11.7343 10.3442L13.8257 8.25286L16.2267 10.654ZM19.463 13.8905L17.3718 15.9818L14.9705 13.5806L17.0618 11.4892L19.463 13.8905ZM12.0442 16.5071L14.1354 14.4158L16.5367 16.817L14.4453 18.9082L12.0442 16.5071ZM8.80768 13.2706L10.8989 11.1793L13.3001 13.5805L11.2088 15.6717L8.80768 13.2706ZM10.0638 10.3442L7.9726 12.4355L5.57131 10.0342L7.66255 7.94295L10.0638 10.3442ZM17.6138 22.0768L15.2804 19.7435L17.3718 17.6522L19.7052 19.9856L17.6138 22.0768ZM20.5404 19.1502L18.207 16.8168L20.2983 14.7256L22.6315 17.059L20.5404 19.1502ZM7.42056 1.84789L9.75379 4.18111L7.6624 6.2725L5.32917 3.93927L7.42056 1.84789ZM4.49409 4.77435L6.82732 7.10758L4.73608 9.19882L2.40286 6.86559L4.49409 4.77435Z" fill="#74A6BF"/>
<path d="M25.9327 27.5928C26.5243 27.5928 27.0803 27.3624 27.4986 26.9442C28.3622 26.0806 28.3622 24.6756 27.4986 23.812C27.0803 23.3938 26.5241 23.1633 25.9327 23.1633C25.3412 23.1633 24.785 23.3938 24.3668 23.812C23.5032 24.6756 23.5032 26.0806 24.3668 26.9442C24.785 27.3624 25.3411 27.5928 25.9327 27.5928ZM25.2018 24.6473C25.397 24.4521 25.6566 24.3444 25.9327 24.3444C26.2088 24.3444 26.4683 24.4521 26.6635 24.6473C27.0664 25.0502 27.0664 25.7059 26.6635 26.1088C26.4683 26.304 26.2088 26.4115 25.9327 26.4115C25.6566 26.4115 25.397 26.304 25.2018 26.1088C24.7988 25.7059 24.7988 25.0502 25.2018 24.6473Z" fill="#74A6BF"/>
</g>
</g>
<defs>
<clipPath id="clip0_466_200">
<rect width="50" height="50" fill="white" transform="matrix(-1 0 0 -1 50.9771 50.3335)"/>
</clipPath>
<clipPath id="clip1_466_200">
<rect width="50" height="50" fill="white" transform="matrix(-1 0 0 -1 50.9771 50.3335)"/>
</clipPath>
</defs>
</svg>
