<svg width="51" height="51" viewBox="0 0 51 51" fill="none" xmlns="http://www.w3.org/2000/svg">
<g clip-path="url(#clip0_466_119)">
<rect width="50" height="50" transform="translate(0.0229492 0.333496)" fill="#003180"/>
<g clip-path="url(#clip1_466_119)">
<path d="M39.4176 13.9184C40.2136 13.9184 40.9617 13.6085 41.5245 13.0457C42.6863 11.8839 42.6863 9.99353 41.5245 8.83185C40.9618 8.26903 40.2136 7.95898 39.4176 7.95898C38.6218 7.95898 37.8735 8.2689 37.3107 8.83171C36.1489 9.99353 36.1489 11.8839 37.3107 13.0457C37.8735 13.6084 38.6218 13.9184 39.4176 13.9184ZM38.0659 9.58708C38.427 9.22602 38.9071 9.0272 39.4176 9.0272C39.9282 9.0272 40.4082 9.22602 40.7693 9.58708C41.5145 10.3323 41.5145 11.545 40.7693 12.2903C40.4082 12.6514 39.9282 12.8502 39.4176 12.8502C38.9071 12.8502 38.427 12.6514 38.0659 12.2905C37.3207 11.545 37.3207 10.3323 38.0659 9.58708Z" fill="#74A6BF"/>
<path d="M27.4383 22.9181C26.9704 22.4502 26.3483 22.1924 25.6865 22.1924C25.0248 22.1924 24.4027 22.4501 23.9348 22.9181C22.969 23.8839 22.969 25.4556 23.9348 26.4216C24.4027 26.8895 25.0248 27.1472 25.6865 27.1472C26.3483 27.1472 26.9703 26.8895 27.4381 26.4216C27.9061 25.9537 28.1639 25.3316 28.1639 24.6698C28.1639 24.0081 27.9061 23.386 27.4383 22.9181ZM26.6829 25.6662C26.4168 25.9323 26.0628 26.0788 25.6865 26.0788C25.3101 26.0788 24.9561 25.9322 24.69 25.6662C24.1407 25.1167 24.1407 24.2228 24.69 23.6735C24.9561 23.4072 25.3101 23.2607 25.6865 23.2607C26.0628 23.2607 26.4168 23.4073 26.6829 23.6735C26.949 23.9396 27.0956 24.2934 27.0956 24.6698C27.0956 25.0462 26.949 25.4001 26.6829 25.6662Z" fill="#74A6BF"/>
<path d="M49.8662 42.8501L35.835 28.8189C35.6266 28.6103 35.2883 28.6103 35.0798 28.8189L33.4148 30.4838L32.3052 29.3742L36.4357 25.2437C38.5649 23.1145 39.2955 20.0136 38.4211 17.2071C39.1884 17.4441 39.9927 17.5671 40.7974 17.5671C42.9351 17.5671 44.9447 16.7347 46.456 15.2235C47.9683 13.7111 48.8011 11.7005 48.8011 9.56193C48.8011 8.5323 48.6063 7.53312 48.2372 6.60418L49.6441 5.19734C49.7442 5.09719 49.8005 4.96126 49.8005 4.81959C49.8005 4.67792 49.7442 4.54212 49.6441 4.44184L45.9143 0.711911C45.7056 0.503342 45.3673 0.503342 45.159 0.711911L43.7522 2.11875C42.8232 1.74981 41.8241 1.555 40.7944 1.555C38.6557 1.555 36.6452 2.3878 35.133 3.90013C33.0037 6.02934 32.273 9.1301 33.1475 11.9368C32.3804 11.6998 31.5759 11.5768 30.7713 11.5768C28.6336 11.5768 26.6239 12.4091 25.1127 13.9205L20.982 18.0512L19.8724 16.9415L21.5372 15.2767C21.7459 15.068 21.7459 14.7299 21.5372 14.5214L7.50597 0.489856C7.40583 0.389711 7.2699 0.333496 7.12836 0.333496C6.98682 0.333496 6.85089 0.389711 6.75075 0.489856L0.179232 7.06151C-0.0294705 7.27021 -0.0294705 7.6083 0.179232 7.81687L14.2105 21.8481C14.3106 21.9483 14.4466 22.0045 14.5881 22.0045C14.7296 22.0045 14.8656 21.9483 14.9657 21.8481L16.6305 20.1833L17.7401 21.2929L16.6554 22.3777L16.6551 22.3778L16.655 22.3781L13.3536 25.6794C13.1449 25.8881 13.1449 26.2262 13.3536 26.4348L23.9215 37.0026C24.0216 37.1027 24.1576 37.159 24.2991 37.159C24.4406 37.159 24.5766 37.1027 24.6767 37.0026L29.0633 32.616L30.1729 33.7256L28.5081 35.3904C28.408 35.4905 28.3516 35.6265 28.3516 35.7681C28.3516 35.9098 28.408 36.0456 28.5081 36.1459L42.5394 50.1771C42.6435 50.2814 42.7804 50.3335 42.917 50.3335C43.0536 50.3335 43.1904 50.2813 43.2946 50.1771L49.8662 43.6056C49.9664 43.5055 50.0227 43.3695 50.0227 43.2279C50.0227 43.0862 49.9664 42.9504 49.8662 42.8501ZM36.6567 42.7838L42.473 36.9675L45.2699 39.7645L39.4536 45.5806L36.6567 42.7838ZM33.1045 39.2316L38.9208 33.4154L41.7176 36.2122L35.9014 42.0284L33.1045 39.2316ZM27.6007 32.568L17.7882 22.7556L23.5658 16.978L33.3782 26.7905L27.6007 32.568ZM45.7007 4.65549C46.942 5.89675 47.654 7.52551 47.7258 9.26897L41.0873 2.63042C42.8307 2.70226 44.4595 3.41422 45.7007 4.65549ZM45.5366 1.84502L48.5111 4.81946L47.7453 5.58537C47.3959 4.97689 46.9655 4.40967 46.456 3.90013C45.9464 3.39059 45.3793 2.96023 44.7709 2.61079L45.5366 1.84502ZM35.8883 4.65549C36.9279 3.61585 38.2397 2.94862 39.6625 2.71641L47.6398 10.6937C47.4076 12.1166 46.7402 13.4285 45.7007 14.468C44.3911 15.7776 42.6498 16.4988 40.7974 16.4988C39.7282 16.4988 38.6602 16.2485 37.708 15.7755L34.5804 12.6479C33.2534 9.97626 33.7783 6.76534 35.8883 4.65549ZM33.7297 13.3079L37.0514 16.6296C38.1421 18.9463 37.8619 21.6426 36.3803 23.6706L26.6855 13.9758C27.8647 13.1123 29.2819 12.6451 30.7713 12.6451C31.7919 12.6451 32.8107 12.8754 33.7297 13.3079ZM25.8679 14.6759C25.8691 14.6747 25.8703 14.6736 25.8715 14.6724L35.6838 24.4849C35.6826 24.4861 35.6817 24.4871 35.6805 24.4883L34.1336 26.0352L24.321 16.2226L25.8679 14.6759ZM8.32783 14.4549L14.144 8.63859L16.941 11.4356L11.1247 17.2517L8.32783 14.4549ZM4.77562 10.9025L10.5918 5.08638L13.3886 7.88336L7.57247 13.6995L4.77562 10.9025ZM7.12836 1.62296L9.83642 4.33102L4.02026 10.1473L1.31221 7.43925L7.12836 1.62296ZM14.5881 20.7151L11.88 18.0071L17.6963 12.1909L20.4044 14.899L16.2534 19.0501L16.253 19.0503L16.2528 19.0507L14.5881 20.7151ZM17.3859 19.4279L19.1172 17.6966L20.2268 18.8062L18.4955 20.5376L17.3859 19.4279ZM24.2991 35.8696L14.4867 26.0571L17.033 23.5109L26.8454 33.3234L24.2991 35.8696ZM29.8187 31.8607L31.5499 30.1296L32.6595 31.2392L30.9282 32.9704L29.8187 31.8607ZM35.4574 29.9519L38.1654 32.6599L32.3491 38.4761L29.6411 35.768L35.4574 29.9519ZM42.917 49.044L40.2089 46.336L46.0252 40.5198L48.7333 43.2279L42.917 49.044Z" fill="#74A6BF"/>
</g>
</g>
<defs>
<clipPath id="clip0_466_119">
<rect width="50" height="50" fill="white" transform="translate(0.0229492 0.333496)"/>
</clipPath>
<clipPath id="clip1_466_119">
<rect width="50" height="50" fill="white" transform="translate(0.0229492 0.333496)"/>
</clipPath>
</defs>
</svg>
