<svg width="51" height="51" viewBox="0 0 51 51" fill="none" xmlns="http://www.w3.org/2000/svg">
<g clip-path="url(#clip0_466_10)">
<rect width="50" height="50" transform="matrix(-1 0 0 -1 50.9771 50.3335)" fill="#003180"/>
<g clip-path="url(#clip1_466_10)">
<path d="M1.12347 9.50915L4.94968 13.3354C5.04338 13.4291 5.17056 13.4818 5.30311 13.4818C5.43566 13.4818 5.56271 13.4291 5.65653 13.3354L7.55109 11.4408L7.99234 11.8819L6.09766 13.7766C6.00396 13.8703 5.95137 13.9975 5.95137 14.1299C5.95137 14.2623 6.00396 14.3895 6.09766 14.4832L9.92387 18.3094C10.119 18.5046 10.4353 18.5046 10.6306 18.3094L12.5252 16.4149L12.9663 16.856L11.0717 18.7505C10.8766 18.9457 10.8766 19.2621 11.0717 19.4571L14.8979 23.2835C14.9916 23.3772 15.1188 23.4299 15.2514 23.4299C15.3839 23.4299 15.511 23.3772 15.6048 23.2835L17.4993 21.3889L18.392 22.2817L11.5468 29.1268C11.4705 29.203 11.421 29.302 11.4057 29.4089L10.2912 37.144C10.2687 37.2999 10.321 37.4572 10.4323 37.5685L13.7427 40.8788C13.8542 40.9902 14.0112 41.0425 14.1673 41.0201L21.9025 39.9056C22.0093 39.8902 22.1082 39.8406 22.1846 39.7643L29.0297 32.9192L29.9224 33.8119L28.0279 35.7066C27.8328 35.9017 27.8328 36.2182 28.0279 36.4132L31.8541 40.2394C31.9478 40.3331 32.075 40.3858 32.2075 40.3858C32.3401 40.3858 32.4671 40.3331 32.561 40.2394L34.4555 38.3449L34.8966 38.786L33.0021 40.6805C32.8069 40.8757 32.8069 41.1921 33.0021 41.3871L36.8283 45.2135C36.922 45.3072 37.0492 45.3599 37.1817 45.3599C37.3143 45.3599 37.4413 45.3072 37.5351 45.2135L39.4292 43.3189L39.8703 43.76L37.9758 45.6546C37.8821 45.7483 37.8295 45.8755 37.8295 46.0079C37.8295 46.1403 37.8821 46.2675 37.9758 46.3612L41.802 50.1875C41.9972 50.3828 42.3136 50.3828 42.5087 50.1875L44.4031 48.2931L45.2933 49.1832C45.4885 49.3785 45.8048 49.3785 46 49.1832C46.1951 48.9881 46.1951 48.6716 46 48.4766L45.1097 47.5864L48.2292 44.4669L49.1194 45.357C49.3146 45.5523 49.6309 45.5523 49.8261 45.357C50.0212 45.1619 50.0212 44.8454 49.8261 44.6504L48.9358 43.7602L50.8308 41.8656C50.9245 41.7719 50.9771 41.6447 50.9771 41.5123C50.9771 41.3799 50.9245 41.2527 50.8308 41.159L47.0045 37.3328C46.907 37.2352 46.779 37.1864 46.6511 37.1864C46.5233 37.1864 46.3954 37.2352 46.2977 37.3328L44.4033 39.2272L43.9621 38.786L45.8567 36.8914C46.0518 36.6963 46.0518 36.3798 45.8567 36.1848L42.0305 32.3586C41.9329 32.261 41.805 32.2122 41.6771 32.2122C41.5493 32.2122 41.4213 32.261 41.3236 32.3586L39.4291 34.2532L38.9879 33.8119L40.8825 31.9174C41.0776 31.7222 41.0776 31.4058 40.8825 31.2108L37.0563 27.3845C36.9626 27.2908 36.8354 27.2381 36.7029 27.2381C36.5703 27.2381 36.4433 27.2908 36.3494 27.3845L34.4549 29.2791L33.5623 28.3865L35.4568 26.4919C35.652 26.2968 35.652 25.9803 35.4568 25.7853L33.194 23.5225L36.8891 22.4833C37.0599 22.4352 37.1925 22.3003 37.2373 22.1286C37.2822 21.957 37.2326 21.7743 37.1071 21.6489L29.6622 14.204C29.5673 14.109 29.4397 14.0576 29.3088 14.0576C29.2667 14.0576 29.2242 14.0629 29.1825 14.0738C29.0108 14.1185 28.8758 14.2511 28.8278 14.4219L27.7878 18.1164L25.5257 15.8543C25.432 15.7606 25.3048 15.7079 25.1723 15.7079C25.0397 15.7079 24.9127 15.7606 24.8188 15.8543L22.9243 17.7489L22.0317 16.8561L23.9262 14.9616C24.1213 14.7664 24.1213 14.45 23.9262 14.255L20.1 10.4288C20.0024 10.3312 19.8745 10.2823 19.7466 10.2823C19.6188 10.2823 19.4908 10.3312 19.3931 10.4288L17.4986 12.3233L17.0575 11.8822L18.952 9.98763C19.1472 9.79248 19.1472 9.47604 18.952 9.28102L15.1258 5.45481C15.0282 5.35724 14.9003 5.3084 14.7724 5.3084C14.6445 5.3084 14.5167 5.35724 14.419 5.45481L12.5244 7.34937L12.0832 6.90824L13.9778 5.01356C14.173 4.81842 14.173 4.50197 13.9778 4.30696L10.1516 0.480747C10.0579 0.387051 9.93074 0.334332 9.79819 0.334332C9.66564 0.334332 9.53859 0.387051 9.44477 0.480747L7.55021 2.3753L6.66009 1.48518C6.56252 1.38761 6.43459 1.33876 6.30666 1.33876C6.17874 1.33876 6.05093 1.38761 5.95324 1.48518C5.7581 1.68032 5.7581 1.99677 5.95324 2.19178L6.84349 3.0819L3.724 6.20152L2.83388 5.31139C2.73631 5.21382 2.60838 5.16497 2.48045 5.16497C2.35265 5.16497 2.22472 5.21382 2.12715 5.31139C1.93189 5.50653 1.93189 5.82298 2.12715 6.01799L3.01728 6.90824L1.12272 8.80279C0.928329 8.99756 0.928329 9.31401 1.12347 9.50915ZM23.7613 18.3255L26.0113 20.5755L20.1224 26.4646C19.4913 27.0955 19.1439 27.9344 19.1439 28.8266C19.1439 29.7189 19.4913 30.5578 20.1224 31.1886C20.7533 31.8197 21.5922 32.1672 22.4845 32.1672C23.3768 32.1672 24.2157 31.8197 24.8467 31.1886L30.7356 25.2997L32.9856 27.5497L23.2658 37.2695L14.0417 28.0453L23.7613 18.3255ZM30.0043 24.6177L24.14 30.4819C23.6977 30.924 23.1099 31.1677 22.4846 31.1677C21.8594 31.1677 21.2715 30.924 20.8292 30.4819C20.3871 30.0397 20.1436 29.4519 20.1436 28.8265C20.1436 28.2011 20.3871 27.6133 20.8293 27.171L26.6935 21.3069L30.0043 24.6177ZM12.6067 29.4801L13.3349 28.7519L22.5591 37.9761L21.8309 38.7043L12.6067 29.4801ZM11.3158 37.0388L12.2523 30.5391L20.772 39.0587L14.2723 39.9952L11.3158 37.0388ZM46.6511 38.3928L49.7706 41.5123L42.1553 49.1275L39.0358 46.008L46.6511 38.3928ZM43.6965 39.934L40.5771 43.0534L40.1359 42.6123L43.2554 39.4928L43.6965 39.934ZM41.6771 33.4188L44.7965 36.5382L37.1812 44.1536L34.0617 41.034L41.6771 33.4188ZM38.7225 34.9598L35.6029 38.0793L35.1617 37.6381L38.2813 34.5185L38.7225 34.9598ZM36.703 28.4446L39.8225 31.5641L32.2072 39.1794L29.0877 36.0599L36.703 28.4446ZM33.7484 29.9857L30.6289 33.1052L29.7362 32.2124L32.8557 29.093L33.7484 29.9857ZM29.5589 15.5138L35.7973 21.7521L32.3838 22.7121L28.5983 18.9266L29.5589 15.5138ZM25.1726 16.9142L34.3969 26.1385L33.6923 26.8431L24.468 17.6188L25.1726 16.9142ZM22.2179 18.4555L19.0984 21.575L18.2058 20.6822L21.3253 17.5627L22.2179 18.4555ZM19.7471 11.4887L22.8666 14.6081L15.2512 22.2235L12.1318 19.1038L19.7471 11.4887ZM16.7925 13.0298L13.6729 16.1494L13.2318 15.7083L16.3514 12.5887L16.7925 13.0298ZM14.773 6.51459L17.8925 9.63408L10.2772 17.2494L7.15756 14.1299L14.773 6.51459ZM11.8184 8.05572L8.69881 11.1753L8.25756 10.7342L11.3772 7.61459L11.8184 8.05572ZM9.79882 1.54052L12.9183 4.66001L5.30298 12.2753L2.18349 9.15585L9.79882 1.54052Z" fill="#74A6BF"/>
</g>
</g>
<defs>
<clipPath id="clip0_466_10">
<rect width="50" height="50" fill="white" transform="matrix(-1 0 0 -1 50.9771 50.3335)"/>
</clipPath>
<clipPath id="clip1_466_10">
<rect width="50" height="50" fill="white" transform="matrix(-1 0 0 -1 50.9771 50.3335)"/>
</clipPath>
</defs>
</svg>
